<?xml version="1.0" encoding="iso-8859-1"?>
<!-- Uploaded to: SVG Repo, www.svgrepo.com, Generator: SVG Repo Mixer Tools -->
<!DOCTYPE svg PUBLIC "-//W3C//DTD SVG 1.1//EN" "http://www.w3.org/Graphics/SVG/1.1/DTD/svg11.dtd">
<svg fill="#000000" version="1.1" id="Capa_1"
  xmlns="http://www.w3.org/2000/svg"
  xmlns:xlink="http://www.w3.org/1999/xlink" width="800px" height="800px" viewBox="0 0 948.492 948.493" xml:space="preserve">
  <g>
    <path d="M364.973,156c56.078-18.02,115.836-19.057,172.815-2.999c0.001,0,0.003,0.001,0.004,0.001
    c37.999,10.709,72.86,28.363,103.62,52.472c22.818,17.886,55.818,13.888,73.707-8.933c17.887-22.82,13.888-55.819-8.934-73.707
    c-41.592-32.602-88.667-56.455-139.916-70.898c-76.911-21.676-157.625-20.259-233.419,4.096
    c-60.358,19.395-114.889,52.355-159.759,96.27l22.875-81.167c7.865-27.908-8.383-56.907-36.291-64.772
    c-27.909-7.866-56.907,8.383-64.772,36.291L40.955,234.083c-7.865,27.908,8.383,56.907,36.291,64.772L266.1,352.078
    c4.763,1.342,9.553,1.982,14.27,1.981c22.917-0.001,43.98-15.127,50.504-38.272c7.864-27.908-8.384-56.907-36.291-64.772
    l-55.853-15.74C273.376,198.765,316.649,171.528,364.973,156z"/>
    <path d="M98.192,693.214c11.267,13.058,23.409,25.436,36.38,37.055c47.219,42.304,103.206,72.727,163.768,89.279l-81.608,21.244
    c-28.06,7.304-44.886,35.973-37.581,64.032c6.15,23.626,27.445,39.287,50.771,39.287c4.377,0,8.827-0.553,13.261-1.706
    l192.469-50.103c13.476-3.507,25.004-12.224,32.053-24.232c7.048-12.008,9.036-26.325,5.528-39.799l-49.428-189.884
    c-7.304-28.06-35.971-44.886-64.032-37.581c-28.06,7.305-44.886,35.974-37.581,64.032l14.618,56.156
    c-49.009-11.469-94.371-35.065-132.175-68.933c-43.872-39.304-74.943-90.359-89.856-147.648
    c-9.946-38.208-12.313-77.215-7.036-115.939c3.916-28.729-16.201-55.192-44.93-59.107c-28.727-3.916-55.192,16.2-59.108,44.93
    c-7.136,52.362-3.953,105.04,9.461,156.568C28.891,591.281,57.955,646.581,98.192,693.214z"/>
    <path d="M799.62,234.101c-20.625-20.379-53.866-20.18-74.245,0.445l-129.913,131.48c-20.379,20.625-20.181,53.866,0.444,74.246
    c20.625,20.379,53.866,20.18,74.245-0.445l38.56-39.023c7.103,24.381,11.07,49.487,11.839,74.765
    c0.269,8.86,0.146,17.743-0.371,26.623c-0.207,3.552-0.477,7.103-0.81,10.651c-1,10.647-2.567,21.276-4.708,31.847
    c-11.69,57.729-39.995,110.37-81.854,152.229c-27.917,27.917-60.36,49.703-96.428,64.753c-26.759,11.165-39.4,41.909-28.234,68.668
    c8.409,20.152,27.92,32.297,48.474,32.297c6.737,0,13.589-1.306,20.194-4.062c48.771-20.351,92.59-49.758,130.241-87.409
    c56.502-56.502,94.719-127.61,110.521-205.637c2.404-11.876,4.273-23.811,5.608-35.768c1.068-9.565,1.795-19.146,2.183-28.728
    c0.387-9.581,0.434-19.16,0.142-28.723c-0.76-24.908-3.833-49.695-9.163-74.074l42.749,42.239
    c10.232,10.11,23.567,15.155,36.898,15.155c13.541,0,27.077-5.207,37.347-15.6c20.379-20.625,20.18-53.866-0.445-74.245
    L799.62,234.101z"/>
  </g>
</svg>
